<?xml version="1.0" encoding="UTF-8" standalone="no"?>
<!-- Created with Inkscape (http://www.inkscape.org/) -->

<svg
   version="1.1"
   id="svg1"
   width="1024"
   height="1024"
   viewBox="0 0 1024 1024"
   sodipodi:docname="logo.svg"
   inkscape:version="1.3.2 (091e20e, 2023-11-25, custom)"
   xmlns:inkscape="http://www.inkscape.org/namespaces/inkscape"
   xmlns:sodipodi="http://sodipodi.sourceforge.net/DTD/sodipodi-0.dtd"
   xmlns="http://www.w3.org/2000/svg"
   xmlns:svg="http://www.w3.org/2000/svg">
  <defs
     id="defs1" />
  <sodipodi:namedview
     id="namedview1"
     pagecolor="#ffffff"
     bordercolor="#000000"
     borderopacity="0.25"
     inkscape:showpageshadow="2"
     inkscape:pageopacity="0.0"
     inkscape:pagecheckerboard="0"
     inkscape:deskcolor="#d1d1d1"
     inkscape:zoom="1.7763672"
     inkscape:cx="711.00165"
     inkscape:cy="280.06597"
     inkscape:window-width="3840"
     inkscape:window-height="2054"
     inkscape:window-x="-11"
     inkscape:window-y="-11"
     inkscape:window-maximized="1"
     inkscape:current-layer="g1" />
  <g
     inkscape:groupmode="layer"
     inkscape:label="Image"
     id="g1">
    <path
       style="fill:#191819;stroke:none"
       d="m 330.96127,180.36901 h 1 c 4.01068,19.43121 16.32333,36.642 26.7609,53.40775 36.31756,58.33643 103.77737,135.30734 179.23908,99.59225 2.5551,9.7868 13.1713,14.565 21,7 h 1 c 24.7596,37.46802 49.3148,72.68152 63.4861,115.91052 2.8451,8.6789 7.5917,18.05359 8.892,27.08948 1.9406,13.48578 -3.7394,23.09265 11.6219,31.65125 18.8076,10.47869 47.6038,2.86779 68,1.43823 25.5756,-1.79254 58.6756,0.37323 82,-11.46289 16.0114,-8.12513 22.6408,-24.41449 30.2469,-39.62659 14.6068,-29.21368 34.0419,-55.73376 25.2747,-90 -5.909,-23.09552 -31.5583,-45.11493 -56.5216,-43.85651 -11.9521,0.60254 -22.4133,7.15015 -35,6.84186 -10.0462,-0.24609 -18.4045,-5.38269 -28,-6.61731 -11.5574,-1.48706 -27.9699,8.27185 -36,15.72223 -27.2872,25.31732 -18,71.1134 -18,104.90973 19.957,0 40.1479,-0.94098 60,-2.83026 6.0567,-0.57642 16.5845,1.27655 21.6096,-2.77313 3.6861,-2.97065 5.5685,-9.25891 7.6373,-13.39661 5.3049,-10.60974 10.2035,-21.39587 15.5062,-32 2.4301,-4.85962 6.0692,-14.2063 13.2431,-12.15277 7.6935,2.20233 7.2903,10.35956 4.6905,16.15277 -8.0019,17.83142 -16.5038,40.06293 -27.7947,55.94519 -4.7211,6.64087 -13.7139,4.92236 -20.892,5.76929 -20.1006,2.3717 -41.7638,3.27636 -62,3.28552 -6.0716,0.003 -17.2893,3.37158 -22.6095,-0.0278 -6.9192,-4.42099 -11.2025,-21.64206 -14.7492,-28.9722 -11.6315,-24.03876 -24.8713,-47.54645 -39.3334,-70 -49.1313,-76.27972 -116.0113,-145.17163 -195.30788,-190.28088 -18.32483,-10.42444 -37.10403,-20.30597 -57,-27.41126 -8.655,-3.09088 -17.63605,-6.79028 -27,-6.26465 -24.64096,1.38312 -16.42954,42.60321 -10.23292,57.56841 L 430.0016,466.4669 510.95921,659.74462 c 0.34729,8.14965 17.39218,11.36845 9.28121,-8.49936 L 456.35124,494.74877 C 414.55459,389.95552 319.89823,175.75498 330.96127,180.36901 m 377.99998,27 112,20 c 0,-23.58234 -10.2906,-44.13837 -33,-53.76855 -28.4344,-12.05799 -73.7244,-1.45368 -79,33.76855 m -361.99998,-33 c 54.74243,21.11676 103.50827,54.68805 146.99998,93.83099 14.1384,12.72467 37.9993,30.09925 45,48.16901 -19.8929,9.24402 -39.8717,14.42151 -62,9.60956 -10.48094,-2.27918 -20.02421,-8.91052 -28.99998,-14.42053 -28.31274,-17.38056 -51.24286,-42.35236 -70.4213,-69.18903 -10.62915,-14.87354 -19.74224,-30.73584 -25.88656,-48 -2.07941,-5.84265 -5.48023,-13.77539 -4.69214,-20 m 470.99998,93 c 16.8876,2.18085 34.9021,9.81848 52,8.95215 8.3868,-0.42493 14.2149,-9.38544 9.2577,-16.9082 -3.3544,-5.0904 -9.7385,-5.83295 -15.2577,-6.79395 -11.9874,-2.08728 -23.9469,-4.57526 -36,-6.25 -46.7994,-6.50262 -93.662,-15.98962 -140,-25.19983 -11.4662,-2.27905 -26.3375,-7.6712 -38,-6.57178 -7.0882,0.66822 -11.1241,7.00519 -9.7214,13.76776 1.5606,7.52411 9.413,8.54975 15.7214,9.80402 10.6464,2.11676 21.3557,3.87146 32,6 3.692,0.73828 9.5869,0.83124 12.6428,3.18823 3.7806,2.91602 1.1975,15.50592 1.3966,20.0116 0.4942,11.18878 5.4289,22.39008 12.4282,31 30.9207,38.03583 101.2737,20.82184 103.5324,-31 m 27,195 c -8.7226,18.40851 -16.5328,38.5282 -33,51.48224 -29.1003,22.89191 -75.074,19.21551 -110,21.60724 -17.3858,1.19067 -35.841,4.35003 -53,-0.0895 l 16.9013,48.99927 9.9506,14.01538 0.1481,68.98537 v 143 c -28.9931,0 -58.0092,0.34106 -87,-0.004 -9.0243,-0.10736 -17.9328,-3.64532 -27,-2.82562 -19.0969,1.72644 -34.5209,13.67438 -54,12.7901 -19.6474,-0.8919 -37.80189,-11.02484 -57.99998,-10.9599 -16.50015,0.0531 -32.72235,10.41175 -49,8.69525 -8.8407,-0.93225 -16.49622,-5.39428 -25,-7.45678 -8.92581,-2.16486 -17.12595,0.24969 -26,-0.32947 -6.99133,-0.4563 -13.9371,-3.23578 -21,-2.72528 -22.38083,1.61749 -39.78098,20.61841 -56,34.22607 -9.80307,8.22467 -21.3656,17.08606 -35,16.07172 -28.92778,-2.1521 -30.46056,-35.96619 -56,-43.48224 0.0284,42.88361 36.18759,83.64215 81,62.6767 21.34485,-9.98615 29.50565,-33.85822 55,-36.21222 20.04947,-1.8512 30.26736,14.3407 43.01465,26.44525 9.35193,8.88043 22.05459,14.50464 34.98535,15.0509 13.27246,0.56073 28.11496,-4.07269 37.99924,-13.06482 7.64593,-6.9556 12.7687,-16.90164 22.00076,-21.99057 13.06412,-7.20117 34.46998,-2.90509 48.99998,-2.90509 -11.5298,16.01923 -25.9752,8.23468 -40.99922,14.14813 -6.6726,2.62635 -10.12393,10.21021 -6.54397,16.75775 4.72226,8.63672 18.39843,6.13263 26.54319,6.09339 33.5915,-0.16205 42.6101,-39.75464 75,-40.54401 29.7969,-0.72626 40.1455,34.53052 68,40.08099 16.9547,3.37854 34.422,0.0344 48,-11.00384 14.7959,-12.0282 22.7611,-28.46137 44,-29.42822 20.2338,-0.92115 29.7488,14.74566 43.0008,26.72528 10.0579,9.09216 22.3667,14.55523 35.9992,15.13116 14.0025,0.59156 28.7063,-4.54651 38.9992,-14.05401 7.5117,-6.93854 12.7569,-16.5611 22.0008,-21.49305 13.4234,-7.16186 34.2377,-3.41357 49,-3.41357 9.9343,0 21.5261,-1.05267 23.9823,-13 2.0327,-9.8877 -6.7107,-18.44159 -15.9823,-19.79016 -22.6825,-3.29907 -48.0616,-0.20984 -71,-0.20984 v -247 -72 -29 M 470.03758,691.47626 c -0.22125,13.88662 -7.21116,21.2248 1.0689,30.90621 10.03688,11.73553 38.8888,-0.79568 48.23604,-15.90265 5.82753,-9.41845 1.14656,-21.56344 1.24677,-33.32674 -6.60083,-4.46353 -10.09908,1.81837 -13.58312,6.81985 0.98222,5.32386 2.37908,14.86049 -0.59235,20.40326 -4.23585,7.90142 -17.31304,13.45805 -21.9151,9.98525 -3.46873,-2.61759 -1.06952,-8.12489 -0.94247,-12.38888 l 3.44438,-0.44085 c -2.24714,-3.54502 -8.61654,-5.04714 -15.8192,-13.68885 M 253.96127,557.36901 c -8.07628,15.14923 -14.50328,40.81941 -17.42227,57.77192 14.06076,-5.854 15.90628,-11.49519 30.42227,-6.77192 v 1 c -50.09155,20.85492 -87.66135,68.49036 -89.96065,123 -1.45869,34.58142 10.79127,62.59559 31.09115,88.38838 5.88923,7.48279 19.11936,20.38237 29.8695,20.52751 17.55391,0.23706 32.37814,-22.29901 45,-31.91589 v -1 c -21.7905,-12.71838 -47.35161,-27.3941 -71,-36 11.21887,-39.53461 46.34555,-43.35754 80,-54 l -17,30 c 8.42755,-1.08838 26.26108,-2.30408 32.48224,-8.31403 7.08783,-6.84722 10.05133,-20.68908 18.70218,-25.65899 7.17566,-4.12232 22.52844,-4.37207 30.81558,-5.02698 -15.31445,-21.7406 -39.77374,-49.30743 -18.47067,-77 5.10644,-6.63806 11.81784,-11.12561 18.47067,-16 -14.00385,26.6153 -15.00385,78.5791 25,84.85034 21.35471,3.34766 42.11069,-9.42138 62,-14.85034 -6.01425,-12.89557 -20.7558,-12 -33,-12 l 33,-43 c -24.71564,-10.3446 -46.38852,-22.69788 -73,-28.57562 -11.45264,-2.5296 -23.29361,-4.53321 -35,-5.3349 -5.66351,-0.38782 -12.6102,1.20196 -18,-0.831 -6.2009,-2.33892 -11.62567,-8.70135 -17,-12.54864 -13.89618,-9.94769 -30.41818,-21.93298 -47,-26.70984 m 515.99998,67 v 186 c -4.2719,0 -17.1839,2.17883 -19.3966,-2.31787 -1.6515,-3.35639 -0.6034,-9.03027 -0.6034,-12.68213 v -31 -98 c 0,-10.30139 -3.9333,-30.46234 0.6034,-39.68213 2.2127,-4.49658 15.1247,-2.31787 19.3966,-2.31787 m -600.64549,3.78644 6,54 16.44908,-21 27.55092,-30 -50,-3 m 224.64627,3.57232 c 13.34589,-2.39392 18.25803,18.22815 4.99539,21.24622 -14.40322,3.27759 -19.48132,-18.64777 -4.99539,-21.24622 m -51.00076,191.64124 c 14.63184,6.81207 34.59656,17.76447 51,17.12427 8.14407,-0.31787 13.55786,-5.3476 21,-7.48615 6.11996,-1.7586 13.67432,-0.63812 20,-0.63812 -14.62854,26.24426 -42.72345,30.53186 -68,17.21912 -8.27011,-4.35572 -26.37396,-14.69764 -24,-26.21912 m 322.99998,20 c -8.3078,17.66541 -41.483,17.44788 -51,1 l 51,-1 m 160,0 c -9.0353,19.21234 -39.7634,15.64874 -51,1 z"
       id="path1"
       sodipodi:nodetypes="ccscccssssssssssscsssssssscsssssssccsccccsccscssssccssssssssssssccsscccccssssssscsscsssssscsscssssssssssscccccssccsscccccccssscccccsscscscccsssscccsscsscccccccsccsscsccccccc" />
  </g>
</svg>
